# Blender 4.3.2
# www.blender.org
mtllib cactus.mtl
o Cylinder
v 0.000000 -0.338404 -0.338404
v 0.000000 2.103506 -0.338404
v 0.239288 -0.338404 -0.239288
v 0.239288 2.103506 -0.239288
v 0.338404 -0.338404 0.000000
v 0.338404 2.103506 0.000000
v 0.239288 -0.338404 0.239288
v 0.239288 2.103506 0.239288
v 0.000000 -0.338404 0.338404
v 0.000000 2.103506 0.338404
v -0.239288 -0.338404 0.239288
v -0.239288 2.103506 0.239288
v -0.338404 -0.338404 0.000000
v -0.338404 2.103506 0.000000
v -0.239288 -0.338404 -0.239288
v -0.239288 2.103506 -0.239288
v 0.148302 2.337049 -0.148302
v 0.000000 2.337049 -0.209730
v 0.209730 2.337049 -0.000000
v 0.148302 2.337049 0.148302
v 0.000000 2.337049 0.209730
v -0.148302 2.337049 0.148302
v -0.209730 2.337049 -0.000000
v -0.148302 2.337049 -0.148302
vn 0.3827 -0.0000 -0.9239
vn 0.9239 -0.0000 -0.3827
vn 0.9239 -0.0000 0.3827
vn 0.3827 -0.0000 0.9239
vn -0.3827 -0.0000 0.9239
vn -0.9239 -0.0000 0.3827
vn 0.8233 0.4536 -0.3410
vn -0.9239 -0.0000 -0.3827
vn -0.3827 -0.0000 -0.9239
vn -0.0000 -1.0000 -0.0000
vn -0.0000 1.0000 -0.0000
vn -0.3410 0.4536 0.8233
vn -0.3410 0.4536 -0.8233
vn 0.3410 0.4536 -0.8233
vn 0.8233 0.4536 0.3410
vn -0.8233 0.4536 0.3410
vn 0.3410 0.4536 0.8233
vn -0.8233 0.4536 -0.3410
vt 1.000000 0.500000
vt 1.000000 1.000000
vt 0.875000 1.000000
vt 0.875000 0.500000
vt 0.750000 1.000000
vt 0.750000 0.500000
vt 0.625000 1.000000
vt 0.625000 0.500000
vt 0.500000 1.000000
vt 0.500000 0.500000
vt 0.375000 1.000000
vt 0.375000 0.500000
vt 0.250000 1.000000
vt 0.250000 0.500000
vt 0.125000 1.000000
vt 0.125000 0.500000
vt 0.000000 1.000000
vt 0.000000 0.500000
vt 0.750000 0.490000
vt 0.919706 0.419706
vt 0.990000 0.250000
vt 0.919706 0.080294
vt 0.750000 0.010000
vt 0.580294 0.080294
vt 0.510000 0.250000
vt 0.580294 0.419706
vt 0.419706 0.419706
vt 0.250000 0.490000
vt 0.080294 0.419706
vt 0.010000 0.250000
vt 0.080294 0.080294
vt 0.250000 0.010000
vt 0.419706 0.080294
vt 0.490000 0.250000
s 0
f 1/1/1 2/2/1 4/3/1 3/4/1
f 3/4/2 4/3/2 6/5/2 5/6/2
f 5/6/3 6/5/3 8/7/3 7/8/3
f 7/8/4 8/7/4 10/9/4 9/10/4
f 9/10/5 10/9/5 12/11/5 11/12/5
f 11/12/6 12/11/6 14/13/6 13/14/6
f 6/5/7 4/3/7 17/3/7 19/5/7
f 13/14/8 14/13/8 16/15/8 15/16/8
f 15/16/9 16/15/9 2/17/9 1/18/9
f 1/19/10 3/20/10 5/21/10 7/22/10 9/23/10 11/24/10 13/25/10 15/26/10
f 17/27/11 18/28/11 24/29/11 23/30/11 22/31/11 21/32/11 20/33/11 19/34/11
f 12/11/12 10/9/12 21/9/12 22/11/12
f 2/17/13 16/15/13 24/15/13 18/17/13
f 4/3/14 2/2/14 18/2/14 17/3/14
f 8/7/15 6/5/15 19/5/15 20/7/15
f 14/13/16 12/11/16 22/11/16 23/13/16
f 10/9/17 8/7/17 20/7/17 21/9/17
f 16/15/18 14/13/18 23/13/18 24/15/18
o Cylinder.001
v 0.001137 1.645393 -0.536639
v 0.001137 1.645393 -0.146947
v 0.138914 1.588324 -0.536639
v 0.138914 1.588324 -0.146947
v 0.195983 1.450547 -0.536639
v 0.195983 1.450547 -0.146947
v 0.138914 1.312770 -0.536639
v 0.138914 1.312770 -0.146947
v 0.001137 1.255701 -0.536639
v 0.001137 1.255701 -0.146947
v -0.136640 1.312770 -0.536639
v -0.136640 1.312770 -0.146947
v -0.193709 1.450547 -0.536639
v -0.193709 1.450547 -0.146947
v -0.136640 1.588324 -0.536639
v -0.136640 1.588324 -0.146947
v 0.001137 1.688083 -0.620550
v 0.138914 1.646160 -0.659271
v 0.195983 1.544950 -0.752754
v 0.138914 1.443740 -0.846237
v 0.001137 1.401818 -0.884959
v -0.136640 1.443740 -0.846237
v -0.193709 1.544950 -0.752754
v -0.136640 1.646160 -0.659271
v 0.001137 1.755532 -0.647676
v 0.138914 1.734914 -0.700890
v 0.195983 1.685138 -0.829362
v 0.138914 1.635361 -0.957833
v 0.001137 1.614743 -1.011047
v -0.136640 1.635361 -0.957833
v -0.193709 1.685138 -0.829362
v -0.136640 1.734914 -0.700890
v 0.001137 1.803218 -0.679060
v 0.138914 1.802287 -0.736122
v 0.195983 1.800040 -0.873881
v 0.138914 1.797792 -1.011639
v 0.001137 1.796861 -1.068701
v -0.136640 1.797792 -1.011639
v -0.193709 1.800040 -0.873881
v -0.136640 1.802287 -0.736122
v 0.001137 2.067718 -0.683375
v 0.138914 2.066787 -0.740437
v 0.195983 2.064539 -0.878195
v 0.138914 2.062292 -1.015954
v 0.001137 2.061361 -1.073016
v -0.136640 2.062292 -1.015954
v -0.193709 2.064539 -0.878195
v -0.136640 2.066787 -0.740437
v 0.001137 2.206875 -0.740640
v 0.100032 2.206206 -0.781598
v 0.140996 2.204593 -0.880480
v 0.100032 2.202980 -0.979362
v 0.001137 2.202312 -1.020320
v -0.097758 2.202980 -0.979362
v -0.138722 2.204593 -0.880480
v -0.097758 2.206206 -0.781598
v 0.001137 2.280325 -0.811501
v 0.050779 2.279989 -0.832061
v 0.071342 2.279180 -0.881697
v 0.050779 2.278370 -0.931333
v 0.001137 2.278034 -0.951893
v -0.048506 2.278370 -0.931333
v -0.069068 2.279180 -0.881697
v -0.048506 2.279989 -0.832061
vn 0.3827 0.9239 -0.0000
vn 0.9239 0.3827 -0.0000
vn 0.9239 -0.3827 -0.0000
vn 0.3827 -0.9239 -0.0000
vn -0.3827 -0.9239 -0.0000
vn -0.9239 -0.3827 -0.0000
vn -0.0000 -0.0000 1.0000
vn -0.9239 0.3827 -0.0000
vn -0.3827 0.9239 -0.0000
vn 0.9136 -0.3737 -0.1602
vn -0.3688 0.3744 0.8508
vn -0.9136 -0.3737 -0.1602
vn 0.3598 -0.8599 -0.3621
vn -0.9135 0.3711 0.1668
vn 0.9135 0.3711 0.1668
vn -0.3598 -0.8599 -0.3621
vn -0.3589 0.8393 0.4085
vn 0.3589 0.8393 0.4085
vn -0.3753 -0.2853 -0.8819
vn -0.9198 -0.1936 -0.3413
vn 0.3735 -0.4699 -0.7998
vn 0.9192 0.1806 0.3498
vn -0.9192 0.1806 0.3498
vn -0.3735 -0.4699 -0.7998
vn 0.9198 -0.1936 -0.3413
vn 0.3688 0.3744 0.8508
vn -0.9239 0.0062 0.3826
vn 0.9202 -0.1308 -0.3689
vn 0.3597 0.4675 0.8075
vn -0.3597 0.4675 0.8075
vn -0.9202 -0.1308 -0.3689
vn 0.3753 -0.2853 -0.8819
vn 0.9183 0.1587 0.3627
vn -0.9183 0.1587 0.3627
vn -0.8685 0.3350 -0.3653
vn -0.3827 -0.0151 -0.9238
vn 0.9239 -0.0062 -0.3826
vn 0.3827 0.0151 0.9238
vn -0.3827 0.0151 0.9238
vn -0.9239 -0.0062 -0.3826
vn 0.3827 -0.0151 -0.9238
vn 0.9239 0.0062 0.3826
vn 0.2898 0.6645 0.6888
vn 0.3598 0.3267 -0.8740
vn 0.8685 0.3468 0.3541
vn -0.8685 0.3468 0.3541
vn -0.3598 0.3267 -0.8740
vn 0.8685 0.3350 -0.3653
vn 0.3598 0.3551 0.8628
vn -0.3598 0.3551 0.8628
vn -0.0000 0.9999 -0.0163
vn -0.2898 0.6645 0.6888
vn -0.6995 0.6484 -0.3004
vn 0.2898 0.6417 -0.7101
vn 0.6995 0.6578 0.2791
vn -0.6995 0.6578 0.2791
vn -0.2898 0.6417 -0.7101
vn 0.6995 0.6484 -0.3004
vt 1.000000 0.500000
vt 1.000000 1.000000
vt 0.875000 1.000000
vt 0.875000 0.500000
vt 0.750000 1.000000
vt 0.750000 0.500000
vt 0.625000 1.000000
vt 0.625000 0.500000
vt 0.500000 1.000000
vt 0.500000 0.500000
vt 0.375000 1.000000
vt 0.375000 0.500000
vt 0.250000 1.000000
vt 0.250000 0.500000
vt 0.419706 0.419706
vt 0.250000 0.490000
vt 0.080294 0.419706
vt 0.010000 0.250000
vt 0.080294 0.080294
vt 0.250000 0.010000
vt 0.419706 0.080294
vt 0.490000 0.250000
vt 0.125000 1.000000
vt 0.125000 0.500000
vt 0.000000 1.000000
vt 0.000000 0.500000
vt 0.750000 0.490000
vt 0.919706 0.419706
vt 0.990000 0.250000
vt 0.919706 0.080294
vt 0.750000 0.010000
vt 0.580294 0.080294
vt 0.510000 0.250000
vt 0.580294 0.419706
s 0
f 25/35/19 26/36/19 28/37/19 27/38/19
f 27/38/20 28/37/20 30/39/20 29/40/20
f 29/40/21 30/39/21 32/41/21 31/42/21
f 31/42/22 32/41/22 34/43/22 33/44/22
f 33/44/23 34/43/23 36/45/23 35/46/23
f 35/46/24 36/45/24 38/47/24 37/48/24
f 28/49/25 26/50/25 40/51/25 38/52/25 36/53/25 34/54/25 32/55/25 30/56/25
f 37/48/26 38/47/26 40/57/26 39/58/26
f 39/58/27 40/57/27 26/59/27 25/60/27
f 29/40/28 31/42/28 44/42/28 43/40/28
f 48/58/29 41/60/29 49/60/29 56/58/29
f 35/46/30 37/48/30 47/48/30 46/46/30
f 31/42/31 33/44/31 45/44/31 44/42/31
f 37/48/32 39/58/32 48/58/32 47/48/32
f 27/38/33 29/40/33 43/40/33 42/38/33
f 33/44/34 35/46/34 46/46/34 45/44/34
f 39/58/35 25/60/35 41/60/35 48/58/35
f 25/35/36 27/38/36 42/38/36 41/35/36
f 53/44/37 54/46/37 62/46/37 61/44/37
f 46/46/38 47/48/38 55/48/38 54/46/38
f 44/42/39 45/44/39 53/44/39 52/42/39
f 42/38/40 43/40/40 51/40/40 50/38/40
f 47/48/41 48/58/41 56/58/41 55/48/41
f 45/44/42 46/46/42 54/46/42 53/44/42
f 43/40/43 44/42/43 52/42/43 51/40/43
f 41/35/44 42/38/44 50/38/44 49/35/44
f 63/48/45 64/58/45 72/58/45 71/48/45
f 51/40/46 52/42/46 60/42/46 59/40/46
f 49/35/47 50/38/47 58/38/47 57/35/47
f 56/58/48 49/60/48 57/60/48 64/58/48
f 54/46/49 55/48/49 63/48/49 62/46/49
f 52/42/50 53/44/50 61/44/50 60/42/50
f 50/38/51 51/40/51 59/40/51 58/38/51
f 55/48/52 56/58/52 64/58/52 63/48/52
f 70/46/53 71/48/53 79/48/53 78/46/53
f 61/44/54 62/46/54 70/46/54 69/44/54
f 59/40/55 60/42/55 68/42/55 67/40/55
f 57/35/56 58/38/56 66/38/56 65/35/56
f 64/58/57 57/60/57 65/60/57 72/58/57
f 62/46/58 63/48/58 71/48/58 70/46/58
f 60/42/59 61/44/59 69/44/59 68/42/59
f 58/38/60 59/40/60 67/40/60 66/38/60
f 73/35/61 74/38/61 82/38/61 81/35/61
f 68/42/62 69/44/62 77/44/62 76/42/62
f 66/38/63 67/40/63 75/40/63 74/38/63
f 71/48/64 72/58/64 80/58/64 79/48/64
f 69/44/65 70/46/65 78/46/65 77/44/65
f 67/40/66 68/42/66 76/42/66 75/40/66
f 65/35/67 66/38/67 74/38/67 73/35/67
f 72/58/68 65/60/68 73/60/68 80/58/68
f 81/61/69 82/62/69 83/63/69 84/64/69 85/65/69 86/66/69 87/67/69 88/68/69
f 80/58/70 73/60/70 81/60/70 88/58/70
f 78/46/71 79/48/71 87/48/71 86/46/71
f 76/42/72 77/44/72 85/44/72 84/42/72
f 74/38/73 75/40/73 83/40/73 82/38/73
f 79/48/74 80/58/74 88/58/74 87/48/74
f 77/44/75 78/46/75 86/46/75 85/44/75
f 75/40/76 76/42/76 84/42/76 83/40/76
o Cylinder.002
v 0.008365 1.001190 0.634195
v 0.008365 1.001189 0.179793
v -0.152290 0.934644 0.634195
v -0.152290 0.934644 0.179793
v -0.218836 0.773988 0.634195
v -0.218836 0.773988 0.179793
v -0.152290 0.613333 0.634195
v -0.152290 0.613333 0.179793
v 0.008365 0.546787 0.634195
v 0.008365 0.546787 0.179793
v 0.169020 0.613333 0.634195
v 0.169020 0.613333 0.179793
v 0.235566 0.773988 0.634195
v 0.235566 0.773988 0.179793
v 0.169020 0.934644 0.634195
v 0.169020 0.934644 0.179793
v 0.008365 1.050968 0.732039
v -0.152290 1.002084 0.777191
v -0.218836 0.884068 0.886197
v -0.152290 0.766052 0.995203
v 0.008365 0.717168 1.040355
v 0.169020 0.766052 0.995203
v 0.235566 0.884068 0.886197
v 0.169020 1.002084 0.777191
v 0.008365 1.129617 0.763670
v -0.152290 1.105575 0.825721
v -0.218836 1.047534 0.975525
v -0.152290 0.989492 1.125330
v 0.008365 0.965450 1.187381
v 0.169020 0.989492 1.125330
v 0.235566 1.047534 0.975525
v 0.169020 1.105575 0.825721
v 0.008365 1.185222 0.800266
v -0.152290 1.184136 0.866803
v -0.218836 1.181516 1.027437
v -0.152290 1.178895 1.188071
v 0.008365 1.177810 1.254608
v 0.169021 1.178895 1.188071
v 0.235566 1.181516 1.027437
v 0.169020 1.184136 0.866803
v 0.008365 1.493643 0.805297
v -0.152290 1.492557 0.871834
v -0.218836 1.489937 1.032468
v -0.152290 1.487316 1.193102
v 0.008365 1.486231 1.259639
v 0.169021 1.487316 1.193102
v 0.235566 1.489937 1.032468
v 0.169020 1.492557 0.871834
v 0.008365 1.655907 0.872071
v -0.106952 1.655128 0.919831
v -0.154718 1.653247 1.035133
v -0.106952 1.651366 1.150434
v 0.008365 1.650587 1.198194
v 0.123682 1.651366 1.150434
v 0.171448 1.653247 1.035132
v 0.123682 1.655128 0.919831
v 0.008365 1.741554 0.954699
v -0.049521 1.741163 0.978673
v -0.073498 1.740219 1.036551
v -0.049521 1.739275 1.094429
v 0.008365 1.738883 1.118403
v 0.066251 1.739275 1.094429
v 0.090228 1.740219 1.036551
v 0.066251 1.741163 0.978673
vn -0.3827 0.9239 -0.0000
vn -0.9239 0.3827 -0.0000
vn -0.9239 -0.3827 -0.0000
vn -0.3827 -0.9239 -0.0000
vn 0.3827 -0.9239 -0.0000
vn 0.9239 -0.3827 -0.0000
vn -0.0000 -0.0000 -1.0000
vn 0.9239 0.3827 -0.0000
vn 0.3827 0.9239 -0.0000
vn -0.9136 -0.3737 0.1602
vn 0.3688 0.3744 -0.8508
vn 0.9136 -0.3737 0.1602
vn -0.3598 -0.8599 0.3621
vn 0.9135 0.3711 -0.1668
vn -0.9135 0.3711 -0.1668
vn 0.3598 -0.8599 0.3621
vn 0.3589 0.8393 -0.4085
vn -0.3589 0.8393 -0.4085
vn 0.3753 -0.2853 0.8819
vn 0.9198 -0.1936 0.3413
vn -0.3735 -0.4699 0.7998
vn -0.9192 0.1806 -0.3498
vn 0.9192 0.1806 -0.3498
vn 0.3735 -0.4699 0.7998
vn -0.9198 -0.1936 0.3413
vn -0.3688 0.3744 -0.8508
vn 0.9239 0.0062 -0.3826
vn -0.9202 -0.1308 0.3689
vn -0.3597 0.4675 -0.8075
vn 0.3597 0.4675 -0.8075
vn 0.9202 -0.1308 0.3689
vn -0.3753 -0.2853 0.8819
vn -0.9183 0.1587 -0.3627
vn 0.9183 0.1587 -0.3627
vn 0.8685 0.3350 0.3653
vn 0.3827 -0.0151 0.9238
vn -0.9239 -0.0062 0.3826
vn -0.3827 0.0151 -0.9238
vn 0.3827 0.0151 -0.9238
vn 0.9239 -0.0062 0.3826
vn -0.3827 -0.0151 0.9238
vn -0.9239 0.0062 -0.3826
vn -0.2898 0.6645 -0.6888
vn -0.3598 0.3267 0.8740
vn -0.8685 0.3468 -0.3541
vn 0.8685 0.3468 -0.3541
vn 0.3598 0.3267 0.8740
vn -0.8685 0.3350 0.3653
vn -0.3598 0.3551 -0.8628
vn 0.3598 0.3551 -0.8628
vn -0.0000 0.9999 0.0163
vn 0.2898 0.6645 -0.6888
vn 0.6995 0.6484 0.3004
vn -0.2898 0.6417 0.7101
vn -0.6995 0.6578 -0.2791
vn 0.6995 0.6578 -0.2791
vn 0.2898 0.6417 0.7101
vn -0.6995 0.6484 0.3004
vt 1.000000 0.500000
vt 1.000000 1.000000
vt 0.875000 1.000000
vt 0.875000 0.500000
vt 0.750000 1.000000
vt 0.750000 0.500000
vt 0.625000 1.000000
vt 0.625000 0.500000
vt 0.500000 1.000000
vt 0.500000 0.500000
vt 0.375000 1.000000
vt 0.375000 0.500000
vt 0.250000 1.000000
vt 0.250000 0.500000
vt 0.419706 0.419706
vt 0.250000 0.490000
vt 0.080294 0.419706
vt 0.010000 0.250000
vt 0.080294 0.080294
vt 0.250000 0.010000
vt 0.419706 0.080294
vt 0.490000 0.250000
vt 0.125000 1.000000
vt 0.125000 0.500000
vt 0.000000 1.000000
vt 0.000000 0.500000
vt 0.750000 0.490000
vt 0.919706 0.419706
vt 0.990000 0.250000
vt 0.919706 0.080294
vt 0.750000 0.010000
vt 0.580294 0.080294
vt 0.510000 0.250000
vt 0.580294 0.419706
s 0
f 89/69/77 90/70/77 92/71/77 91/72/77
f 91/72/78 92/71/78 94/73/78 93/74/78
f 93/74/79 94/73/79 96/75/79 95/76/79
f 95/76/80 96/75/80 98/77/80 97/78/80
f 97/78/81 98/77/81 100/79/81 99/80/81
f 99/80/82 100/79/82 102/81/82 101/82/82
f 92/83/83 90/84/83 104/85/83 102/86/83 100/87/83 98/88/83 96/89/83 94/90/83
f 101/82/84 102/81/84 104/91/84 103/92/84
f 103/92/85 104/91/85 90/93/85 89/94/85
f 93/74/86 95/76/86 108/76/86 107/74/86
f 112/92/87 105/94/87 113/94/87 120/92/87
f 99/80/88 101/82/88 111/82/88 110/80/88
f 95/76/89 97/78/89 109/78/89 108/76/89
f 101/82/90 103/92/90 112/92/90 111/82/90
f 91/72/91 93/74/91 107/74/91 106/72/91
f 97/78/92 99/80/92 110/80/92 109/78/92
f 103/92/93 89/94/93 105/94/93 112/92/93
f 89/69/94 91/72/94 106/72/94 105/69/94
f 117/78/95 118/80/95 126/80/95 125/78/95
f 110/80/96 111/82/96 119/82/96 118/80/96
f 108/76/97 109/78/97 117/78/97 116/76/97
f 106/72/98 107/74/98 115/74/98 114/72/98
f 111/82/99 112/92/99 120/92/99 119/82/99
f 109/78/100 110/80/100 118/80/100 117/78/100
f 107/74/101 108/76/101 116/76/101 115/74/101
f 105/69/102 106/72/102 114/72/102 113/69/102
f 127/82/103 128/92/103 136/92/103 135/82/103
f 115/74/104 116/76/104 124/76/104 123/74/104
f 113/69/105 114/72/105 122/72/105 121/69/105
f 120/92/106 113/94/106 121/94/106 128/92/106
f 118/80/107 119/82/107 127/82/107 126/80/107
f 116/76/108 117/78/108 125/78/108 124/76/108
f 114/72/109 115/74/109 123/74/109 122/72/109
f 119/82/110 120/92/110 128/92/110 127/82/110
f 134/80/111 135/82/111 143/82/111 142/80/111
f 125/78/112 126/80/112 134/80/112 133/78/112
f 123/74/113 124/76/113 132/76/113 131/74/113
f 121/69/114 122/72/114 130/72/114 129/69/114
f 128/92/115 121/94/115 129/94/115 136/92/115
f 126/80/116 127/82/116 135/82/116 134/80/116
f 124/76/117 125/78/117 133/78/117 132/76/117
f 122/72/118 123/74/118 131/74/118 130/72/118
f 137/69/119 138/72/119 146/72/119 145/69/119
f 132/76/120 133/78/120 141/78/120 140/76/120
f 130/72/121 131/74/121 139/74/121 138/72/121
f 135/82/122 136/92/122 144/92/122 143/82/122
f 133/78/123 134/80/123 142/80/123 141/78/123
f 131/74/124 132/76/124 140/76/124 139/74/124
f 129/69/125 130/72/125 138/72/125 137/69/125
f 136/92/126 129/94/126 137/94/126 144/92/126
f 145/95/127 146/96/127 147/97/127 148/98/127 149/99/127 150/100/127 151/101/127 152/102/127
f 144/92/128 137/94/128 145/94/128 152/92/128
f 142/80/129 143/82/129 151/82/129 150/80/129
f 140/76/130 141/78/130 149/78/130 148/76/130
f 138/72/131 139/74/131 147/74/131 146/72/131
f 143/82/132 144/92/132 152/92/132 151/82/132
f 141/78/133 142/80/133 150/80/133 149/78/133
f 139/74/134 140/76/134 148/76/134 147/74/134
