# Blender 4.3.2
# www.blender.org
mtllib WildWestBuilding3 .mtl
o Cube.005
v -10.269899 3.451158 7.348063
v -10.269899 7.228524 7.348063
v -10.269899 3.451158 6.468258
v -10.269899 7.228524 6.468258
v -7.742872 3.451158 7.348063
v -7.742872 7.228524 7.348063
v -7.742872 3.451158 6.468258
v -7.742872 7.228524 6.468258
v -10.064786 3.757759 7.348063
v -10.064786 6.921923 7.348063
v -7.947986 6.921923 7.348063
v -7.947986 3.757759 7.348063
v -10.064786 3.757759 7.348063
v -10.064786 6.921923 7.348063
v -7.947986 6.921923 7.348063
v -7.947986 3.757759 7.348063
v -10.064786 3.757759 7.237928
v -10.064786 6.921923 7.237928
v -7.947986 6.921923 7.237928
v -7.947986 3.757759 7.237928
v -1.018857 3.451158 7.348063
v -1.018857 7.228523 7.348063
v -1.018857 3.451158 6.468258
v -1.018857 7.228523 6.468258
v 1.508170 3.451158 7.348063
v 1.508170 7.228523 7.348063
v 1.508170 3.451158 6.468258
v 1.508170 7.228523 6.468258
v -0.813744 3.757759 7.348063
v -0.813744 6.921922 7.348063
v 1.303056 6.921922 7.348063
v 1.303056 3.757759 7.348063
v -0.813744 3.757759 7.348063
v -0.813744 6.921922 7.348063
v 1.303056 6.921922 7.348063
v 1.303056 3.757759 7.348063
v -0.813744 3.757759 7.237928
v -0.813744 6.921922 7.237928
v 1.303056 6.921922 7.237928
v 1.303056 3.757759 7.237928
v -10.269899 13.048685 7.348063
v -10.269899 16.826050 7.348063
v -10.269899 13.048685 6.468258
v -10.269899 16.826050 6.468258
v -7.742872 13.048685 7.348063
v -7.742872 16.826050 7.348063
v -7.742872 13.048685 6.468258
v -7.742872 16.826050 6.468258
v -10.064786 13.355286 7.348063
v -10.064786 16.519449 7.348063
v -7.947986 16.519449 7.348063
v -7.947986 13.355286 7.348063
v -10.064786 13.355286 7.348063
v -10.064786 16.519449 7.348063
v -7.947986 16.519449 7.348063
v -7.947986 13.355286 7.348063
v -10.064786 13.355286 7.237928
v -10.064786 16.519449 7.237928
v -7.947986 16.519449 7.237928
v -7.947986 13.355286 7.237928
v -5.353683 13.048685 7.348063
v -5.353683 16.826050 7.348063
v -5.353683 13.048685 6.468258
v -5.353683 16.826050 6.468258
v -2.826656 13.048685 7.348063
v -2.826656 16.826050 7.348063
v -2.826656 13.048685 6.468258
v -2.826656 16.826050 6.468258
v -5.148569 13.355286 7.348063
v -5.148569 16.519449 7.348063
v -3.031769 16.519449 7.348063
v -3.031769 13.355286 7.348063
v -5.148569 13.355286 7.348063
v -5.148569 16.519449 7.348063
v -3.031769 16.519449 7.348063
v -3.031769 13.355286 7.348063
v -5.148569 13.355286 7.237928
v -5.148569 16.519449 7.237928
v -3.031769 16.519449 7.237928
v -3.031769 13.355286 7.237928
v -1.018857 13.048454 7.348063
v -1.018857 16.825819 7.348063
v -1.018857 13.048454 6.468258
v -1.018857 16.825819 6.468258
v 1.508170 13.048454 7.348063
v 1.508170 16.825819 7.348063
v 1.508170 13.048454 6.468258
v 1.508170 16.825819 6.468258
v -0.813744 13.355055 7.348063
v -0.813744 16.519218 7.348063
v 1.303056 16.519218 7.348063
v 1.303056 13.355055 7.348063
v -0.813744 13.355055 7.348063
v -0.813744 16.519218 7.348063
v 1.303056 16.519218 7.348063
v 1.303056 13.355055 7.348063
v -0.813744 13.355055 7.237928
v -0.813744 16.519218 7.237928
v 1.303056 16.519218 7.237928
v 1.303056 13.355055 7.237928
v 3.603969 10.759807 5.136330
v 3.603969 14.537172 5.136330
v 2.724164 10.759807 5.136336
v 2.724164 14.537172 5.136336
v 3.603951 10.759807 2.609302
v 3.603951 14.537172 2.609302
v 2.724145 10.759807 2.609308
v 2.724145 14.537172 2.609308
v 3.603967 11.066408 4.931217
v 3.603967 14.230572 4.931217
v 3.603951 14.230572 2.814415
v 3.603951 11.066408 2.814415
v 3.603967 11.066408 4.931217
v 3.603967 14.230572 4.931217
v 3.603951 14.230572 2.814415
v 3.603951 11.066408 2.814415
v 3.493833 11.066408 4.931218
v 3.493833 14.230572 4.931218
v 3.493817 14.230572 2.814416
v 3.493817 11.066408 2.814416
vn -1.0000 -0.0000 -0.0000
vn -0.0000 -0.0000 -1.0000
vn 1.0000 -0.0000 -0.0000
vn -0.0000 -0.0000 1.0000
vn -0.0000 -1.0000 -0.0000
vn -0.0000 1.0000 -0.0000
vt 0.375000 0.000000
vt 0.625000 0.000000
vt 0.625000 0.250000
vt 0.375000 0.250000
vt 0.625000 0.500000
vt 0.375000 0.500000
vt 0.625000 0.750000
vt 0.375000 0.750000
vt 0.875000 0.750000
vt 0.125000 0.500000
vt 0.125000 0.750000
vt 0.875000 0.500000
vt 0.625000 1.000000
vt 0.375000 1.000000
s 0
f 1/1/1 2/2/1 4/3/1 3/4/1
f 3/4/2 4/3/2 8/5/2 7/6/2
f 7/6/3 8/5/3 6/7/3 5/8/3
f 6/7/4 2/9/4 10/9/4 11/7/4
f 3/10/5 7/6/5 5/8/5 1/11/5
f 8/5/6 4/12/6 2/9/6 6/7/6
f 11/7/6 10/9/6 14/9/6 15/7/6
f 5/8/4 6/7/4 11/7/4 12/8/4
f 2/2/4 1/1/4 9/1/4 10/2/4
f 1/11/4 5/8/4 12/8/4 9/11/4
f 20/8/4 19/7/4 18/13/4 17/14/4
f 12/8/6 11/7/6 15/7/6 16/8/6
f 9/11/6 12/8/6 16/8/6 13/11/6
f 10/2/6 9/1/6 13/1/6 14/2/6
f 21/1/1 22/2/1 24/3/1 23/4/1
f 23/4/2 24/3/2 28/5/2 27/6/2
f 27/6/3 28/5/3 26/7/3 25/8/3
f 26/7/4 22/9/4 30/9/4 31/7/4
f 23/10/5 27/6/5 25/8/5 21/11/5
f 28/5/6 24/12/6 22/9/6 26/7/6
f 31/7/6 30/9/6 34/9/6 35/7/6
f 25/8/4 26/7/4 31/7/4 32/8/4
f 22/2/4 21/1/4 29/1/4 30/2/4
f 21/11/4 25/8/4 32/8/4 29/11/4
f 40/8/4 39/7/4 38/13/4 37/14/4
f 32/8/6 31/7/6 35/7/6 36/8/6
f 29/11/6 32/8/6 36/8/6 33/11/6
f 30/2/6 29/1/6 33/1/6 34/2/6
f 41/1/1 42/2/1 44/3/1 43/4/1
f 43/4/2 44/3/2 48/5/2 47/6/2
f 47/6/3 48/5/3 46/7/3 45/8/3
f 46/7/4 42/9/4 50/9/4 51/7/4
f 43/10/5 47/6/5 45/8/5 41/11/5
f 48/5/6 44/12/6 42/9/6 46/7/6
f 51/7/6 50/9/6 54/9/6 55/7/6
f 45/8/4 46/7/4 51/7/4 52/8/4
f 42/2/4 41/1/4 49/1/4 50/2/4
f 41/11/4 45/8/4 52/8/4 49/11/4
f 60/8/4 59/7/4 58/13/4 57/14/4
f 52/8/6 51/7/6 55/7/6 56/8/6
f 49/11/6 52/8/6 56/8/6 53/11/6
f 50/2/6 49/1/6 53/1/6 54/2/6
f 61/1/1 62/2/1 64/3/1 63/4/1
f 63/4/2 64/3/2 68/5/2 67/6/2
f 67/6/3 68/5/3 66/7/3 65/8/3
f 66/7/4 62/9/4 70/9/4 71/7/4
f 63/10/5 67/6/5 65/8/5 61/11/5
f 68/5/6 64/12/6 62/9/6 66/7/6
f 71/7/6 70/9/6 74/9/6 75/7/6
f 65/8/4 66/7/4 71/7/4 72/8/4
f 62/2/4 61/1/4 69/1/4 70/2/4
f 61/11/4 65/8/4 72/8/4 69/11/4
f 80/8/4 79/7/4 78/13/4 77/14/4
f 72/8/6 71/7/6 75/7/6 76/8/6
f 69/11/6 72/8/6 76/8/6 73/11/6
f 70/2/6 69/1/6 73/1/6 74/2/6
f 81/1/1 82/2/1 84/3/1 83/4/1
f 83/4/2 84/3/2 88/5/2 87/6/2
f 87/6/3 88/5/3 86/7/3 85/8/3
f 86/7/4 82/9/4 90/9/4 91/7/4
f 83/10/5 87/6/5 85/8/5 81/11/5
f 88/5/6 84/12/6 82/9/6 86/7/6
f 91/7/6 90/9/6 94/9/6 95/7/6
f 85/8/4 86/7/4 91/7/4 92/8/4
f 82/2/4 81/1/4 89/1/4 90/2/4
f 81/11/4 85/8/4 92/8/4 89/11/4
f 100/8/4 99/7/4 98/13/4 97/14/4
f 92/8/6 91/7/6 95/7/6 96/8/6
f 89/11/6 92/8/6 96/8/6 93/11/6
f 90/2/6 89/1/6 93/1/6 94/2/6
f 101/1/4 102/2/4 104/3/4 103/4/4
f 103/4/1 104/3/1 108/5/1 107/6/1
f 107/6/2 108/5/2 106/7/2 105/8/2
f 106/7/3 102/9/3 110/9/3 111/7/3
f 103/10/5 107/6/5 105/8/5 101/11/5
f 108/5/6 104/12/6 102/9/6 106/7/6
f 111/7/6 110/9/6 114/9/6 115/7/6
f 105/8/3 106/7/3 111/7/3 112/8/3
f 102/2/3 101/1/3 109/1/3 110/2/3
f 101/11/3 105/8/3 112/8/3 109/11/3
f 120/8/3 119/7/3 118/13/3 117/14/3
f 112/8/6 111/7/6 115/7/6 116/8/6
f 109/11/6 112/8/6 116/8/6 113/11/6
f 110/2/6 109/1/6 113/1/6 114/2/6
f 94/2/3 93/1/3 97/14/3 98/13/3
f 95/7/5 94/2/5 98/13/5 99/7/5
f 96/8/1 95/7/1 99/7/1 100/8/1
f 93/1/6 96/8/6 100/8/6 97/14/6
f 74/2/3 73/1/3 77/14/3 78/13/3
f 75/7/5 74/2/5 78/13/5 79/7/5
f 73/1/6 76/8/6 80/8/6 77/14/6
f 54/2/3 53/1/3 57/14/3 58/13/3
f 55/7/5 54/2/5 58/13/5 59/7/5
f 56/8/1 55/7/1 59/7/1 60/8/1
f 53/1/6 56/8/6 60/8/6 57/14/6
f 14/2/3 13/1/3 17/14/3 18/13/3
f 14/2/5 18/13/5 19/7/5 15/7/5
f 16/8/1 15/7/1 19/7/1 20/8/1
f 16/8/6 20/8/6 17/14/6 13/1/6
f 34/2/3 33/1/3 37/14/3 38/13/3
f 34/2/5 38/13/5 39/7/5 35/7/5
f 36/8/1 35/7/1 39/7/1 40/8/1
f 36/8/6 40/8/6 37/14/6 33/1/6
f 114/2/2 113/1/2 117/14/2 118/13/2
f 113/1/6 116/8/6 120/8/6 117/14/6
f 116/8/4 115/7/4 119/7/4 120/8/4
f 115/7/5 114/2/5 118/13/5 119/7/5
o Cube.004
v -5.606302 1.289262 7.347678
v -5.606302 6.290803 7.347678
v -5.606302 1.289262 6.924795
v -5.606302 6.290803 6.924795
v -3.047101 1.289262 7.347678
v -3.047101 6.290803 7.347678
v -3.047101 1.289262 6.924795
v -3.047101 6.290803 6.924795
v -5.439907 1.379299 7.347678
v -5.439907 5.965611 7.347678
v -3.213496 5.965611 7.347678
v -3.213496 1.379299 7.347678
v -5.439907 1.379299 7.274716
v -5.439907 5.965611 7.274716
v -3.213496 5.965611 7.274716
v -3.213496 1.379299 7.274716
vn -1.0000 -0.0000 -0.0000
vn -0.0000 -0.0000 -1.0000
vn 1.0000 -0.0000 -0.0000
vn -0.0000 -0.0000 1.0000
vn -0.0000 -1.0000 -0.0000
vn -0.0000 1.0000 -0.0000
vt 0.375000 0.000000
vt 0.625000 0.000000
vt 0.625000 0.250000
vt 0.375000 0.250000
vt 0.625000 0.500000
vt 0.375000 0.500000
vt 0.625000 0.750000
vt 0.375000 0.750000
vt 0.875000 0.750000
vt 0.125000 0.500000
vt 0.125000 0.750000
vt 0.875000 0.500000
vt 0.625000 1.000000
vt 0.375000 1.000000
s 0
f 121/15/7 122/16/7 124/17/7 123/18/7
f 123/18/8 124/17/8 128/19/8 127/20/8
f 127/20/9 128/19/9 126/21/9 125/22/9
f 126/21/10 122/23/10 130/23/10 131/21/10
f 123/24/11 127/20/11 125/22/11 121/25/11
f 128/19/12 124/26/12 122/23/12 126/21/12
f 132/22/7 131/21/7 135/21/7 136/22/7
f 125/22/10 126/21/10 131/21/10 132/22/10
f 122/16/10 121/15/10 129/15/10 130/16/10
f 121/25/10 125/22/10 132/22/10 129/25/10
f 136/22/10 135/21/10 134/27/10 133/28/10
f 129/25/12 132/22/12 136/22/12 133/25/12
f 130/16/9 129/15/9 133/15/9 134/16/9
f 131/21/11 130/23/11 134/23/11 135/21/11
o Cube.003
v -6.575339 -0.321985 13.591995
v -6.575339 1.382568 11.764427
v -6.575339 -0.628140 13.306447
v -6.575339 1.076413 11.478880
v -6.454552 -0.321985 13.591995
v -6.454552 1.382568 11.764427
v -6.454552 -0.628140 13.306447
v -6.454552 1.076413 11.478880
v -9.364753 -0.321985 13.591995
v -9.364753 1.382568 11.764427
v -9.364753 -0.628140 13.306447
v -9.364753 1.076413 11.478880
v -9.243967 -0.321985 13.591995
v -9.243967 1.382568 11.764427
v -9.243967 -0.628140 13.306447
v -9.243967 1.076413 11.478880
v -9.323403 -0.002336 13.268405
v -6.539218 -0.002336 13.266760
v -9.323710 -0.002336 12.849755
v -6.539526 -0.002336 12.848110
v -9.323403 -0.123123 13.268405
v -6.539218 -0.123123 13.266760
v -9.323710 -0.123123 12.849755
v -6.539526 -0.123123 12.848110
v -9.323403 0.455937 12.722378
v -6.539218 0.455937 12.720732
v -9.323710 0.455937 12.303727
v -6.539526 0.455937 12.302082
v -9.323403 0.335151 12.722378
v -6.539218 0.335150 12.720733
v -9.323710 0.335151 12.303727
v -6.539526 0.335151 12.302082
v -9.323403 0.907710 12.231603
v -6.539218 0.907710 12.229958
v -9.323710 0.907710 11.812953
v -6.539526 0.907710 11.811308
v -9.323403 0.786923 12.231603
v -6.539218 0.786923 12.229958
v -9.323710 0.786923 11.812953
v -6.539526 0.786924 11.811308
vn -1.0000 -0.0000 -0.0000
vn -0.0000 -0.7313 -0.6821
vn 1.0000 -0.0000 -0.0000
vn -0.0000 0.7313 0.6821
vn -0.0000 -0.6821 0.7313
vn -0.0000 0.6821 -0.7313
vn -0.0000 1.0000 -0.0000
vn -0.0006 -0.0000 -1.0000
vn -0.0000 -1.0000 -0.0000
vn 0.0006 -0.0000 1.0000
vn -1.0000 -0.0000 0.0007
vn 1.0000 -0.0000 -0.0007
vt 0.375000 0.000000
vt 0.625000 0.000000
vt 0.625000 0.250000
vt 0.375000 0.250000
vt 0.625000 0.500000
vt 0.375000 0.500000
vt 0.625000 0.750000
vt 0.375000 0.750000
vt 0.625000 1.000000
vt 0.375000 1.000000
vt 0.125000 0.500000
vt 0.125000 0.750000
vt 0.875000 0.500000
vt 0.875000 0.750000
s 0
f 137/29/13 138/30/13 140/31/13 139/32/13
f 139/32/14 140/31/14 144/33/14 143/34/14
f 143/34/15 144/33/15 142/35/15 141/36/15
f 141/36/16 142/35/16 138/37/16 137/38/16
f 139/39/17 143/34/17 141/36/17 137/40/17
f 144/33/18 140/41/18 138/42/18 142/35/18
f 145/29/13 146/30/13 148/31/13 147/32/13
f 147/32/14 148/31/14 152/33/14 151/34/14
f 151/34/15 152/33/15 150/35/15 149/36/15
f 149/36/16 150/35/16 146/37/16 145/38/16
f 147/39/17 151/34/17 149/36/17 145/40/17
f 152/33/18 148/41/18 146/42/18 150/35/18
f 153/29/19 154/30/19 156/31/19 155/32/19
f 155/32/20 156/31/20 160/33/20 159/34/20
f 159/34/21 160/33/21 158/35/21 157/36/21
f 157/36/22 158/35/22 154/37/22 153/38/22
f 155/39/23 159/34/23 157/36/23 153/40/23
f 160/33/24 156/41/24 154/42/24 158/35/24
f 161/29/19 162/30/19 164/31/19 163/32/19
f 163/32/20 164/31/20 168/33/20 167/34/20
f 167/34/21 168/33/21 166/35/21 165/36/21
f 165/36/22 166/35/22 162/37/22 161/38/22
f 163/39/23 167/34/23 165/36/23 161/40/23
f 168/33/24 164/41/24 162/42/24 166/35/24
f 169/29/19 170/30/19 172/31/19 171/32/19
f 171/32/20 172/31/20 176/33/20 175/34/20
f 175/34/21 176/33/21 174/35/21 173/36/21
f 173/36/22 174/35/22 170/37/22 169/38/22
f 171/39/23 175/34/23 173/36/23 169/40/23
f 176/33/24 172/41/24 170/42/24 174/35/24
o Cube.002
v 2.095555 -1.296363 11.090063
v 2.095555 10.247059 11.090063
v 2.095555 -1.296363 10.628707
v 2.095555 10.247059 10.628707
v 2.553147 -1.296363 11.090063
v 2.553147 10.247059 11.090063
v 2.553147 -1.296363 10.628707
v 2.553147 10.247059 10.628707
v 2.095555 8.903956 11.090063
v 2.095555 8.903956 10.628707
v 2.553147 8.903956 10.628707
v 2.553147 8.903956 11.090063
v 2.020151 8.682634 11.166086
v 2.020151 10.468381 11.166086
v 2.020151 10.468381 10.552683
v 2.628551 10.468381 10.552683
v 2.628551 10.468381 11.166086
v 2.020151 8.682634 10.552683
v 2.628551 8.682634 10.552683
v 2.628551 8.682634 11.166086
v -11.411160 -1.296363 11.090063
v -11.411160 10.247059 11.090063
v -11.411160 -1.296363 10.628707
v -11.411160 10.247059 10.628707
v -10.953569 -1.296363 11.090063
v -10.953569 10.247059 11.090063
v -10.953569 -1.296363 10.628707
v -10.953569 10.247059 10.628707
v -11.411160 8.903956 11.090063
v -11.411160 8.903956 10.628707
v -10.953569 8.903956 10.628707
v -10.953569 8.903956 11.090063
v -11.486565 8.682634 11.166086
v -11.486565 10.468381 11.166086
v -11.486565 10.468381 10.552683
v -10.878165 10.468381 10.552683
v -10.878165 10.468381 11.166086
v -11.486565 8.682634 10.552683
v -10.878165 8.682634 10.552683
v -10.878165 8.682634 11.166086
vn -0.0000 -0.3249 -0.9458
vn -0.0000 -0.3249 0.9458
vn -0.0000 0.3249 -0.9458
vn 0.9466 0.3225 -0.0000
vn -0.0000 -1.0000 -0.0000
vn -0.0000 1.0000 -0.0000
vn -0.0000 -0.0000 1.0000
vn 1.0000 -0.0000 -0.0000
vn -0.0000 -0.0000 -1.0000
vn -1.0000 -0.0000 -0.0000
vn -0.0000 0.3249 0.9458
vn 0.9466 -0.3225 -0.0000
vn -0.9466 0.3225 -0.0000
vn -0.9466 -0.3225 -0.0000
vt 0.595912 1.000000
vt 0.595912 0.750000
vt 0.595912 0.500000
vt 0.595912 0.250000
vt 0.625000 0.750000
vt 0.875000 0.750000
vt 0.875000 0.500000
vt 0.125000 0.500000
vt 0.375000 0.500000
vt 0.375000 0.750000
vt 0.125000 0.750000
vt 0.625000 0.500000
vt 0.375000 1.000000
vt 0.375000 0.250000
vt 0.375000 0.000000
vt 0.595912 0.000000
vt 0.625000 0.000000
vt 0.625000 0.250000
vt 0.625000 1.000000
s 0
f 185/43/25 188/44/25 196/44/25 189/43/25
f 187/45/26 186/46/26 194/46/26 195/45/26
f 182/47/27 178/48/27 190/48/27 193/47/27
f 178/48/28 180/49/28 191/49/28 190/48/28
f 179/50/29 183/51/29 181/52/29 177/53/29
f 184/54/30 180/49/30 178/48/30 182/47/30
f 181/52/31 188/44/31 185/43/31 177/55/31
f 183/51/32 187/45/32 188/44/32 181/52/32
f 179/56/33 186/46/33 187/45/33 183/51/33
f 177/57/34 185/58/34 186/46/34 179/56/34
f 189/58/34 190/59/34 191/60/34 194/46/34
f 194/46/33 191/60/33 192/54/33 195/45/33
f 195/45/32 192/54/32 193/47/32 196/44/32
f 196/44/31 193/47/31 190/61/31 189/43/31
f 180/49/35 184/54/35 192/54/35 191/49/35
f 186/46/36 185/58/36 189/58/36 194/46/36
f 184/54/37 182/47/37 193/47/37 192/54/37
f 188/44/38 187/45/38 195/45/38 196/44/38
f 205/43/25 208/44/25 216/44/25 209/43/25
f 207/45/26 206/46/26 214/46/26 215/45/26
f 202/47/27 198/48/27 210/48/27 213/47/27
f 198/48/28 200/49/28 211/49/28 210/48/28
f 199/50/29 203/51/29 201/52/29 197/53/29
f 204/54/30 200/49/30 198/48/30 202/47/30
f 201/52/31 208/44/31 205/43/31 197/55/31
f 203/51/32 207/45/32 208/44/32 201/52/32
f 199/56/33 206/46/33 207/45/33 203/51/33
f 197/57/34 205/58/34 206/46/34 199/56/34
f 209/58/34 210/59/34 211/60/34 214/46/34
f 214/46/33 211/60/33 212/54/33 215/45/33
f 215/45/32 212/54/32 213/47/32 216/44/32
f 216/44/31 213/47/31 210/61/31 209/43/31
f 200/49/35 204/54/35 212/54/35 211/49/35
f 206/46/36 205/58/36 209/58/36 214/46/36
f 204/54/37 202/47/37 213/47/37 212/54/37
f 208/44/38 207/45/38 215/45/38 216/44/38
o Cube.001
v -12.352254 1.017235 11.763466
v -12.352254 1.384714 11.763466
v -12.352254 1.017235 7.072922
v -12.352254 1.384714 7.072922
v 3.632006 1.017235 11.763466
v 3.632006 1.384714 11.763466
v 3.632006 1.017235 7.072922
v 3.632006 1.384714 7.072922
v -12.352254 10.029190 11.326132
v -12.352254 10.371570 11.459611
v -12.352254 11.732935 6.955953
v -12.352254 12.075314 7.089432
v 3.632005 10.029190 11.326132
v 3.632005 10.371570 11.459611
v 3.632005 11.732935 6.955953
v 3.632005 12.075314 7.089432
vn -1.0000 -0.0000 -0.0000
vn -0.0000 -0.0000 -1.0000
vn 1.0000 -0.0000 -0.0000
vn -0.0000 -0.0000 1.0000
vn -0.0000 -1.0000 -0.0000
vn -0.0000 1.0000 -0.0000
vn -0.0000 0.3632 -0.9317
vn -0.0000 -0.3632 0.9317
vn -0.0000 -0.9317 -0.3632
vn -0.0000 0.9317 0.3632
vt 0.375000 0.000000
vt 0.625000 0.000000
vt 0.625000 0.250000
vt 0.375000 0.250000
vt 0.625000 0.500000
vt 0.375000 0.500000
vt 0.625000 0.750000
vt 0.375000 0.750000
vt 0.625000 1.000000
vt 0.375000 1.000000
vt 0.125000 0.500000
vt 0.125000 0.750000
vt 0.875000 0.500000
vt 0.875000 0.750000
s 0
f 217/62/39 218/63/39 220/64/39 219/65/39
f 219/65/40 220/64/40 224/66/40 223/67/40
f 223/67/41 224/66/41 222/68/41 221/69/41
f 221/69/42 222/68/42 218/70/42 217/71/42
f 219/72/43 223/67/43 221/69/43 217/73/43
f 224/66/44 220/74/44 218/75/44 222/68/44
f 225/62/39 226/63/39 228/64/39 227/65/39
f 227/65/45 228/64/45 232/66/45 231/67/45
f 231/67/41 232/66/41 230/68/41 229/69/41
f 229/69/46 230/68/46 226/70/46 225/71/46
f 227/72/47 231/67/47 229/69/47 225/73/47
f 232/66/48 228/74/48 226/75/48 230/68/48
o Cube
v 3.458451 16.194450 -8.575443
v 3.458451 -0.555835 -8.575443
v 3.458451 16.194450 5.575443
v 3.458451 -0.555835 5.575443
v -4.407072 19.698774 -8.575443
v -4.407072 -0.555835 -8.575443
v -4.407072 19.703787 5.575443
v -4.407072 -0.555835 5.575443
v -4.407072 16.194450 7.104476
v -4.407072 -0.555835 7.104476
v 3.458451 16.194450 7.104476
v 3.458451 -0.555835 7.104476
v 3.458451 20.190756 5.575443
v -4.407072 20.190601 5.575443
v 3.458451 20.190756 7.104476
v -4.407072 20.190601 7.104476
v -0.891748 -0.555835 -8.575443
v -0.891748 18.135431 5.575443
v -0.891748 -0.555835 5.575443
v -0.891748 18.152678 -8.575443
v -0.891748 16.194450 7.104476
v -0.891748 -0.555835 7.104476
v -0.891748 20.190756 5.575443
v -0.891748 20.190756 7.104476
v -4.407072 19.695744 5.575056
v -4.407072 19.936752 5.575056
v -4.407072 19.695744 -8.615757
v -4.407072 19.936752 -8.615757
v 4.164269 15.818426 5.575056
v 4.303414 16.059433 5.575056
v 4.164269 15.818426 -8.615757
v 4.303414 16.059433 -8.615757
v -0.917155 20.190762 5.291800
v -4.407072 20.190592 5.291800
v -0.917155 20.190762 7.388119
v -4.407072 20.190592 7.388119
v 3.830201 20.190762 7.388119
v 3.830201 20.190762 5.291800
v -0.917155 20.791832 5.291800
v -4.407072 20.791662 5.291800
v -0.917155 20.791832 7.388119
v -4.407072 20.791662 7.388119
v 3.830201 20.791832 7.388119
v 3.830201 20.791832 5.291800
v -12.272594 16.194450 -8.575443
v -12.272594 -0.555835 -8.575443
v -12.272594 16.194450 5.575443
v -12.272594 -0.555835 5.575443
v -12.272594 16.194450 7.104476
v -12.272594 -0.555835 7.104476
v -12.272594 20.190756 5.575443
v -12.272594 20.190756 7.104476
v -7.922396 -0.555835 -8.575443
v -7.922396 18.135431 5.575443
v -7.922396 -0.555835 5.575443
v -7.922396 18.152678 -8.575443
v -7.922396 16.194450 7.104476
v -7.922396 -0.555835 7.104476
v -7.922396 20.190756 5.575443
v -7.922396 20.190756 7.104476
v -12.978414 15.818426 5.575056
v -13.117558 16.059433 5.575056
v -12.978414 15.818426 -8.615757
v -13.117558 16.059433 -8.615757
v -7.896989 20.190762 5.291800
v -7.896989 20.190762 7.388119
v -12.644345 20.190762 7.388119
v -12.644345 20.190762 5.291800
v -7.896989 20.791832 5.291800
v -7.896989 20.791832 7.388119
v -12.644345 20.791832 7.388119
v -12.644345 20.791832 5.291800
vn 0.4050 0.9143 0.0004
vn -0.0000 -0.0000 -1.0000
vn -0.0000 -1.0000 -0.0000
vn -1.0000 -0.0000 -0.0000
vn 1.0000 -0.0000 -0.0000
vn -0.0000 -0.0000 1.0000
vn 0.4090 0.9125 0.0006
vn 0.8660 -0.5000 -0.0000
vn -0.4122 -0.9111 -0.0000
vn 0.4067 0.9136 -0.0000
vn -0.0000 1.0000 -0.0000
vn -0.4050 0.9143 0.0004
vn -0.4090 0.9125 0.0006
vn -0.8660 -0.5000 -0.0000
vn 0.4122 -0.9111 -0.0000
vn -0.4067 0.9136 -0.0000
vt 0.750000 0.500000
vt 0.875000 0.500000
vt 0.875000 0.750000
vt 0.750000 0.750000
vt 0.250000 0.500000
vt 0.125000 0.500000
vt 0.375000 0.500000
vt 0.375000 0.750000
vt 0.250000 0.750000
vt 0.000000 0.000000
vt 0.625000 0.500000
vt 0.625000 0.750000
vt 0.125000 0.750000
vt 0.375000 0.000000
vt 0.625000 0.000000
vt 0.625000 0.250000
vt 0.375000 0.250000
vt 0.625000 1.000000
vt 0.375000 1.000000
s 0
usemtl Material.001
f 252/76/49 237/77/49 239/78/49 250/79/49
f 249/80/50 238/81/50 237/77/50 252/76/50
f 249/80/51 234/82/51 236/83/51 251/84/51
f 239/85/52 240/85/52 242/85/52 241/85/52
f 233/86/53 235/87/53 236/83/53 234/82/53
f 254/84/54 244/83/54 243/87/54 253/79/54
f 251/84/51 236/83/51 244/83/51 254/84/51
f 243/87/53 235/87/53 245/87/53 247/87/53
f 236/83/53 235/87/53 243/87/53 244/83/53
f 239/85/52 241/85/52 248/85/52 246/85/52
f 250/79/50 239/78/50 246/78/50 255/79/50
f 253/79/54 243/87/54 247/87/54 256/79/54
f 241/78/54 253/79/54 256/79/54 248/78/54
f 235/87/50 250/79/50 255/79/50 245/87/50
f 240/88/51 251/84/51 254/84/51 242/88/51
f 242/88/54 254/84/54 253/79/54 241/78/54
f 238/81/51 249/80/51 251/84/51 240/88/51
f 234/82/50 249/80/50 252/76/50 233/86/50
f 233/86/55 252/76/55 250/79/55 235/87/55
f 257/89/52 258/90/52 260/91/52 259/92/52
f 259/92/50 260/91/50 264/86/50 263/82/50
f 263/82/56 264/86/56 262/87/56 261/83/56
f 261/83/54 262/87/54 258/93/54 257/94/54
f 259/81/57 263/82/57 261/83/57 257/88/57
f 264/86/58 260/77/58 258/78/58 262/87/58
f 247/87/51 245/87/51 270/87/51 269/87/51
f 245/87/51 255/79/51 265/79/51 270/87/51
f 266/85/52 268/85/52 274/85/52 272/85/52
f 270/87/50 265/79/50 271/79/50 276/87/50
f 248/78/51 256/79/51 267/79/51 268/78/51
f 256/79/51 247/87/51 269/87/51 267/79/51
f 246/85/53 248/85/53 268/85/53 266/85/53
f 255/79/51 246/78/51 266/78/51 265/79/51
f 272/85/59 274/85/59 273/79/59 271/79/59
f 275/87/59 276/87/59 271/79/59 273/79/59
f 265/79/50 266/78/50 272/78/50 271/79/50
f 267/79/54 269/87/54 275/87/54 273/79/54
f 269/87/53 270/87/53 276/87/53 275/87/53
f 268/78/54 267/79/54 273/79/54 274/78/54
f 288/76/60 286/79/60 239/78/60 237/77/60
f 285/80/50 288/76/50 237/77/50 238/81/50
f 285/80/51 287/84/51 280/83/51 278/82/51
f 277/86/52 278/82/52 280/83/52 279/87/52
f 290/84/54 289/79/54 281/87/54 282/83/54
f 287/84/51 290/84/51 282/83/51 280/83/51
f 281/87/52 284/87/52 283/87/52 279/87/52
f 280/83/52 282/83/52 281/87/52 279/87/52
f 286/79/50 291/79/50 246/78/50 239/78/50
f 289/79/54 292/79/54 284/87/54 281/87/54
f 241/78/54 248/78/54 292/79/54 289/79/54
f 279/87/50 283/87/50 291/79/50 286/79/50
f 240/88/51 242/88/51 290/84/51 287/84/51
f 242/88/54 241/78/54 289/79/54 290/84/54
f 238/81/51 240/88/51 287/84/51 285/80/51
f 278/82/50 277/86/50 288/76/50 285/80/50
f 277/86/61 279/87/61 286/79/61 288/76/61
f 259/92/50 295/82/50 296/86/50 260/91/50
f 295/82/62 293/83/62 294/87/62 296/86/62
f 293/83/54 257/94/54 258/93/54 294/87/54
f 259/81/63 257/88/63 293/83/63 295/82/63
f 296/86/64 294/87/64 258/78/64 260/77/64
f 284/87/51 299/87/51 300/87/51 283/87/51
f 283/87/51 300/87/51 297/79/51 291/79/51
f 300/87/50 304/87/50 301/79/50 297/79/50
f 248/78/51 268/78/51 298/79/51 292/79/51
f 292/79/51 298/79/51 299/87/51 284/87/51
f 291/79/51 297/79/51 266/78/51 246/78/51
f 272/85/59 301/79/59 302/79/59 274/85/59
f 303/87/59 302/79/59 301/79/59 304/87/59
f 297/79/50 301/79/50 272/78/50 266/78/50
f 298/79/54 302/79/54 303/87/54 299/87/54
f 299/87/52 303/87/52 304/87/52 300/87/52
f 268/78/54 274/78/54 302/79/54 298/79/54
